<svg width="38" height="20" viewBox="0 0 38 20" fill="none" xmlns="http://www.w3.org/2000/svg">
<path d="M12.0527 1.9082V4.09961H10.4414V8.83691C11.2471 8.77246 12.042 8.68652 12.8047 8.58984L12.998 10.6094C9.02344 11.3076 4.44727 11.3828 1.20312 11.3828L0.902344 9.16992C1.55762 9.16992 2.2666 9.16992 3.00781 9.15918V4.09961H1.41797V1.9082H12.0527ZM3.58789 16.2598C3.58789 13.918 6.13379 12.5967 10.3125 12.6074C14.502 12.5967 17.0693 13.918 17.0801 16.2598C17.0693 18.623 14.502 19.9873 10.3125 19.9766C6.13379 19.9873 3.58789 18.623 3.58789 16.2598ZM5.62891 9.10547C6.33789 9.08398 7.06836 9.05176 7.79883 9.01953V4.09961H5.62891V9.10547ZM6.31641 16.2598C6.31641 17.3447 7.69141 17.8926 10.3125 17.8926C12.9443 17.8926 14.3193 17.3447 14.3301 16.2598C14.3193 15.2178 12.9443 14.6807 10.3125 14.6914C7.69141 14.6807 6.31641 15.2178 6.31641 16.2598ZM14.2012 12.2422V0.447266H16.9512V12.2422H14.2012ZM35.5996 2.14453V4.42188C35.5889 7.26855 35.5889 9.97559 34.6973 14.2188L31.9688 13.9609C32.3555 12.3389 32.5811 10.8994 32.7207 9.57812L21.377 10.1367L21.0332 7.94531L32.8604 7.51562C32.9033 6.44141 32.9141 5.43164 32.9141 4.42188V4.33594H21.6348V2.14453H35.5996ZM19.5938 17.6348V15.4004H37.4258V17.6348H19.5938Z" fill="#FFB9DB"/>
<path d="M12.0527 1.9082H13.0527V0.908203H12.0527V1.9082ZM12.0527 4.09961V5.09961H13.0527V4.09961H12.0527ZM10.4414 4.09961V3.09961H9.44141V4.09961H10.4414ZM10.4414 8.83691H9.44141V9.92011L10.5212 9.83373L10.4414 8.83691ZM12.8047 8.58984L13.8001 8.49453L13.7019 7.46812L12.6789 7.59778L12.8047 8.58984ZM12.998 10.6094L13.1711 11.5943L14.0816 11.4343L13.9935 10.5141L12.998 10.6094ZM1.20312 11.3828L0.212236 11.5175L0.329852 12.3828H1.20312V11.3828ZM0.902344 9.16992V8.16992H-0.242774L-0.0885449 9.30461L0.902344 9.16992ZM3.00781 9.15918L3.0223 10.1591L4.00781 10.1448V9.15918H3.00781ZM3.00781 4.09961H4.00781V3.09961H3.00781V4.09961ZM1.41797 4.09961H0.417969V5.09961H1.41797V4.09961ZM1.41797 1.9082V0.908203H0.417969V1.9082H1.41797ZM10.3125 12.6074L10.3099 13.6074L10.3151 13.6074L10.3125 12.6074ZM17.0801 16.2598L18.0801 16.2643L18.0801 16.2552L17.0801 16.2598ZM10.3125 19.9766L10.3151 18.9766L10.3099 18.9766L10.3125 19.9766ZM5.62891 9.10547H4.62891V10.1362L5.6592 10.105L5.62891 9.10547ZM7.79883 9.01953L7.8429 10.0186L8.79883 9.97639V9.01953H7.79883ZM7.79883 4.09961H8.79883V3.09961H7.79883V4.09961ZM5.62891 4.09961V3.09961H4.62891V4.09961H5.62891ZM14.3301 16.2598L15.33 16.2697L15.3301 16.2596L15.33 16.2495L14.3301 16.2598ZM10.3125 14.6914L10.3084 15.6914L10.3166 15.6914L10.3125 14.6914ZM14.2012 12.2422H13.2012V13.2422H14.2012V12.2422ZM14.2012 0.447266V-0.552734H13.2012V0.447266H14.2012ZM16.9512 0.447266H17.9512V-0.552734H16.9512V0.447266ZM16.9512 12.2422V13.2422H17.9512V12.2422H16.9512ZM11.0527 1.9082V4.09961H13.0527V1.9082H11.0527ZM12.0527 3.09961H10.4414V5.09961H12.0527V3.09961ZM9.44141 4.09961V8.83691H11.4414V4.09961H9.44141ZM10.5212 9.83373C11.3448 9.76783 12.1553 9.68016 12.9304 9.58191L12.6789 7.59778C11.9286 7.69289 11.1493 7.77709 10.3617 7.8401L10.5212 9.83373ZM11.8092 8.68515L12.0026 10.7047L13.9935 10.5141L13.8001 8.49453L11.8092 8.68515ZM12.825 9.62446C8.94453 10.3062 4.4458 10.3828 1.20312 10.3828V12.3828C4.44873 12.3828 9.10234 12.3091 13.1711 11.5943L12.825 9.62446ZM2.19401 11.2481L1.89323 9.03524L-0.0885449 9.30461L0.212236 11.5175L2.19401 11.2481ZM0.902344 10.1699C1.55679 10.1699 2.27277 10.1699 3.0223 10.1591L2.99332 8.15928C2.26043 8.16991 1.55844 8.16992 0.902344 8.16992V10.1699ZM4.00781 9.15918V4.09961H2.00781V9.15918H4.00781ZM3.00781 3.09961H1.41797V5.09961H3.00781V3.09961ZM2.41797 4.09961V1.9082H0.417969V4.09961H2.41797ZM1.41797 2.9082H12.0527V0.908203H1.41797V2.9082ZM4.58789 16.2598C4.58789 15.5343 4.94782 14.9198 5.85594 14.4326C6.80936 13.9211 8.30278 13.6023 10.3099 13.6074L10.3151 11.6074C8.14351 11.6018 6.27463 11.9383 4.91042 12.6702C3.50091 13.4264 2.58789 14.6435 2.58789 16.2598H4.58789ZM10.3151 13.6074C12.3276 13.6023 13.8304 13.921 14.7931 14.4339C15.7122 14.9236 16.0768 15.5408 16.0801 16.2644L18.0801 16.2552C18.0726 14.6369 17.1482 13.4226 15.7335 12.6688C14.3624 11.9383 12.4869 11.6018 10.3099 11.6074L10.3151 13.6074ZM16.0801 16.2552C16.0767 16.9967 15.7042 17.6299 14.7852 18.1301C13.8239 18.6534 12.3235 18.9817 10.3151 18.9766L10.3099 20.9766C12.491 20.9822 14.369 20.6337 15.7414 19.8867C17.1562 19.1167 18.0727 17.8861 18.0801 16.2643L16.0801 16.2552ZM10.3099 18.9766C8.30689 18.9817 6.81594 18.6534 5.86381 18.1315C4.95572 17.6338 4.58789 17.0032 4.58789 16.2598H2.58789C2.58789 17.8796 3.49301 19.1128 4.90255 19.8853C6.26804 20.6338 8.1394 20.9822 10.3151 20.9766L10.3099 18.9766ZM5.6592 10.105C6.37627 10.0833 7.11374 10.0507 7.8429 10.0186L7.75475 8.0205C7.02298 8.05279 6.29951 8.08469 5.59862 8.10593L5.6592 10.105ZM8.79883 9.01953V4.09961H6.79883V9.01953H8.79883ZM7.79883 3.09961H5.62891V5.09961H7.79883V3.09961ZM4.62891 4.09961V9.10547H6.62891V4.09961H4.62891ZM5.31641 16.2598C5.31641 16.7619 5.48239 17.2267 5.80383 17.6126C6.11083 17.9812 6.52154 18.2334 6.95536 18.4096C7.80692 18.7553 8.96059 18.8926 10.3125 18.8926V16.8926C9.04331 16.8926 8.19894 16.7559 7.70772 16.5565C7.47016 16.46 7.3733 16.3719 7.34058 16.3326C7.3223 16.3107 7.31641 16.3002 7.31641 16.2598H5.31641ZM10.3125 18.8926C11.6697 18.8926 12.8254 18.7553 13.6791 18.4101C14.114 18.2342 14.5249 17.9829 14.8332 17.6163C15.1557 17.2329 15.3251 16.7706 15.33 16.2697L13.3301 16.2499C13.3297 16.2914 13.3232 16.3044 13.3026 16.3289C13.2679 16.3702 13.1685 16.4592 12.9293 16.556C12.4348 16.7559 11.5871 16.8926 10.3125 16.8926V18.8926ZM15.33 16.2495C15.3187 15.1545 14.5395 14.4896 13.6679 14.1493C12.8178 13.8174 11.6659 13.6859 10.3084 13.6914L10.3166 15.6914C11.5909 15.6862 12.4425 15.8179 12.9405 16.0123C13.1826 16.1069 13.2818 16.1937 13.3142 16.2308C13.3309 16.2499 13.3299 16.2501 13.3301 16.2701L15.33 16.2495ZM10.3166 13.6914C8.96441 13.6859 7.81463 13.8174 6.96658 14.1498C6.09679 14.4907 5.31641 15.1596 5.31641 16.2598H7.31641C7.31641 16.241 7.31487 16.2436 7.32909 16.2272C7.35938 16.1921 7.45596 16.1061 7.6965 16.0118C8.19123 15.8179 9.03949 15.6862 10.3084 15.6914L10.3166 13.6914ZM15.2012 12.2422V0.447266H13.2012V12.2422H15.2012ZM14.2012 1.44727H16.9512V-0.552734H14.2012V1.44727ZM15.9512 0.447266V12.2422H17.9512V0.447266H15.9512ZM16.9512 11.2422H14.2012V13.2422H16.9512V11.2422ZM35.5996 2.14453H36.5996V1.14453H35.5996V2.14453ZM35.5996 4.42188L36.5996 4.42565V4.42188H35.5996ZM34.6973 14.2188L34.6032 15.2143L35.4923 15.2983L35.6759 14.4244L34.6973 14.2188ZM31.9688 13.9609L30.996 13.729L30.7292 14.8483L31.8747 14.9565L31.9688 13.9609ZM32.7207 9.57812L33.7152 9.68323L33.8379 8.5219L32.6715 8.57934L32.7207 9.57812ZM21.377 10.1367L20.389 10.2917L20.5283 11.1797L21.4261 11.1355L21.377 10.1367ZM21.0332 7.94531L20.9969 6.94597L19.8706 6.98689L20.0453 8.10028L21.0332 7.94531ZM32.8604 7.51562L32.8967 8.51497L33.8225 8.48133L33.8596 7.55559L32.8604 7.51562ZM32.9141 4.33594H33.9141V3.33594H32.9141V4.33594ZM21.6348 4.33594H20.6348V5.33594H21.6348V4.33594ZM21.6348 2.14453V1.14453H20.6348V2.14453H21.6348ZM19.5938 17.6348H18.5938V18.6348H19.5938V17.6348ZM19.5938 15.4004V14.4004H18.5938V15.4004H19.5938ZM37.4258 15.4004H38.4258V14.4004H37.4258V15.4004ZM37.4258 17.6348V18.6348H38.4258V17.6348H37.4258ZM34.5996 2.14453V4.42188H36.5996V2.14453H34.5996ZM34.5996 4.4181C34.5889 7.24903 34.5886 9.87297 33.7186 14.0131L35.6759 14.4244C36.5891 10.0782 36.5888 7.28808 36.5996 4.42565L34.5996 4.4181ZM34.7913 13.2232L32.0628 12.9654L31.8747 14.9565L34.6032 15.2143L34.7913 13.2232ZM32.9415 14.1928C33.3392 12.5248 33.5715 11.0427 33.7152 9.68323L31.7262 9.47302C31.5906 10.7562 31.3718 12.1529 30.996 13.729L32.9415 14.1928ZM32.6715 8.57934L21.3278 9.13793L21.4261 11.1355L32.7699 10.5769L32.6715 8.57934ZM22.3649 9.98175L22.0211 7.79034L20.0453 8.10028L20.389 10.2917L22.3649 9.98175ZM21.0695 8.94465L32.8967 8.51497L32.824 6.51628L20.9969 6.94597L21.0695 8.94465ZM33.8596 7.55559C33.9033 6.46296 33.9141 5.43864 33.9141 4.42188H31.9141C31.9141 5.42464 31.9034 6.41985 31.8612 7.47566L33.8596 7.55559ZM33.9141 4.42188V4.33594H31.9141V4.42188H33.9141ZM32.9141 3.33594H21.6348V5.33594H32.9141V3.33594ZM22.6348 4.33594V2.14453H20.6348V4.33594H22.6348ZM21.6348 3.14453H35.5996V1.14453H21.6348V3.14453ZM20.5938 17.6348V15.4004H18.5938V17.6348H20.5938ZM19.5938 16.4004H37.4258V14.4004H19.5938V16.4004ZM36.4258 15.4004V17.6348H38.4258V15.4004H36.4258ZM37.4258 16.6348H19.5938V18.6348H37.4258V16.6348Z" fill="black"/>
</svg>
