<svg width="51" height="51" viewBox="0 0 51 51" fill="none" xmlns="http://www.w3.org/2000/svg">
<g clip-path="url(#clip0_632_6178)">
<path d="M25.9698 50.5823C39.5629 50.5823 50.5823 39.5629 50.5823 25.9698C50.5823 12.3768 39.5629 1.35742 25.9698 1.35742C12.3768 1.35742 1.35742 12.3768 1.35742 25.9698C1.35742 39.5629 12.3768 50.5823 25.9698 50.5823Z" fill="#66FF99" stroke="#231815" stroke-width="0.835169" stroke-miterlimit="10"/>
<path d="M14.2022 38.1301C12.6404 36.5683 11.9389 33.4615 14.4193 30.9894C15.6554 29.7533 17.1837 29.5278 18.4365 30.3129L17.4677 32.7683C16.8747 32.4259 16.3152 32.5261 15.8809 32.9687C15.0207 33.8289 15.2545 35.1736 16.0396 35.9586C16.6743 36.5933 17.4176 36.5516 17.927 36.0421C18.3697 35.5995 18.52 35.0232 18.4448 34.33L20.8167 34.0544C20.9921 35.3824 20.658 36.7186 19.4387 37.938C17.8352 39.5415 15.7473 39.6835 14.2022 38.1468V38.1301Z" fill="black"/>
<path d="M19.7144 25.8534L21.6185 23.9492L28.2665 28.86L26.2287 30.8978L25.3601 30.2297L23.3557 32.2341L23.6229 33.5035L21.535 35.5915L19.7227 25.8534H19.7144ZM23.8818 28.9769L22.3368 27.7409L22.8379 30.0292L23.8818 28.9769Z" fill="black"/>
<path d="M24.2075 21.4444L26.1284 19.5235L27.6234 22.1376L27.473 18.1705L29.8031 15.832V21.0685L34.121 22.9811L32.0832 25.0189L29.5526 23.8664V25.4699L30.3126 26.7894L28.4001 28.702L24.2075 21.4277V21.4444Z" fill="black"/>
<path d="M30.0869 15.5557L34.981 10.6699L36.1252 12.666L33.1186 15.6726L33.5445 16.4075L36.3423 13.6097L37.3612 15.3636L34.5634 18.1614L35.0144 18.9548L38.0628 15.9064L39.2153 17.8941L34.2878 22.8216L30.0953 15.5473L30.0869 15.5557Z" fill="black"/>
</g>
<defs>
<clipPath id="clip0_632_6178">
<rect width="50.06" height="50.06" fill="white" transform="translate(0.939941 0.939453)"/>
</clipPath>
</defs>
</svg>
