<svg width="66" height="29" viewBox="0 0 66 29" fill="none" xmlns="http://www.w3.org/2000/svg">
<g clip-path="url(#clip0_632_6168)">
<path d="M32.7505 28.3961C50.6318 28.3961 65.1275 22.1789 65.1275 14.5096C65.1275 6.84026 50.6318 0.623047 32.7505 0.623047C14.8692 0.623047 0.373535 6.84026 0.373535 14.5096C0.373535 22.1789 14.8692 28.3961 32.7505 28.3961Z" fill="white" stroke="#231815" stroke-width="0.7486" stroke-miterlimit="10"/>
<path d="M10.4199 14.9958C10.4199 13.0121 11.9471 10.6016 15.0837 10.6016C16.6483 10.6016 17.7637 11.4325 18.0631 12.7201L15.8922 13.6633C15.735 13.0719 15.3083 12.78 14.7618 12.78C13.6688 12.78 12.9652 13.7756 12.9652 14.7713C12.9652 15.5723 13.4667 16.0139 14.1105 16.0139C14.672 16.0139 15.1286 15.7444 15.5254 15.2579L17.2097 16.5904C16.4836 17.5486 15.4206 18.1774 13.8785 18.1774C11.8423 18.1774 10.4274 16.9422 10.4274 14.9884L10.4199 14.9958Z" fill="black"/>
<path d="M21.7015 10.707H24.112L25.2124 18.0283H22.6298L22.5025 17.0552H19.9573L19.3209 18.0283H16.6709L21.694 10.707H21.7015ZM22.3677 15.3259L22.1731 13.5592L21.0427 15.3259H22.3752H22.3677Z" fill="black"/>
<path d="M27.3383 10.7598H29.7712L29.0676 13.3649L31.4855 10.7598H34.4425L31.1337 14.0836L32.6534 18.0287H30.0632L29.1948 15.693L28.1767 16.7111L27.8249 18.0287H25.3994L27.3533 10.7598H27.3383Z" fill="black"/>
<path d="M34.8018 10.7591H41.0002L40.4612 12.7504H36.6509L36.4562 13.484H40.0046L39.5405 15.2357H35.9921L35.775 16.0218H39.6378L39.1063 18.013H32.8555L34.8093 10.7441L34.8018 10.7591Z" fill="black"/>
<path d="M41.7869 10.7598H44.2198L43.5161 13.3649L45.9341 10.7598H48.8911L45.5748 14.0836L47.0944 18.0287H44.5118L43.6359 15.693L42.6178 16.7111L42.266 18.0287H39.833L41.7869 10.7598Z" fill="black"/>
<path d="M49.2501 10.7591H55.4485L54.9095 12.7504H51.0991L50.9045 13.484H54.4528L53.9887 15.2357H50.4403L50.2233 16.0218H54.086L53.5545 18.013H47.3037L49.2576 10.7441L49.2501 10.7591Z" fill="black"/>
</g>
<defs>
<clipPath id="clip0_632_6168">
<rect width="65.51" height="28.5217" fill="white" transform="translate(-0.000488281 0.248047)"/>
</clipPath>
</defs>
</svg>
