<svg width="60" height="59" viewBox="0 0 60 59" fill="none" xmlns="http://www.w3.org/2000/svg">
<g clip-path="url(#clip0_632_6160)">
<path d="M58.8815 28.9875L29.8901 -0.00390625L0.898759 28.9875L29.8901 57.9788L58.8815 28.9875Z" fill="#F1FF6C"/>
<path d="M29.8909 58.9407C29.8909 42.6607 16.7009 29.4707 0.420898 29.4707L29.8909 58.9407Z" fill="white"/>
<path d="M29.8909 58.9407C29.8909 42.6607 16.7009 29.4707 0.420898 29.4707" stroke="#231815" stroke-miterlimit="10"/>
<path d="M0.420898 29.47C16.7009 29.47 29.8909 16.28 29.8909 0L0.420898 29.47Z" fill="white"/>
<path d="M0.420898 29.47C16.7009 29.47 29.8909 16.28 29.8909 0" stroke="#231815" stroke-miterlimit="10"/>
<path d="M29.8911 0C29.8911 16.28 43.0811 29.47 59.3611 29.47L29.8911 0Z" fill="white"/>
<path d="M29.8911 0C29.8911 16.28 43.0811 29.47 59.3611 29.47" stroke="#231815" stroke-miterlimit="10"/>
<path d="M59.3611 29.4707C43.0811 29.4707 29.8911 42.6607 29.8911 58.9407L59.3611 29.4707Z" fill="white"/>
<path d="M59.3611 29.4707C43.0811 29.4707 29.8911 42.6607 29.8911 58.9407" stroke="#231815" stroke-miterlimit="10"/>
</g>
<defs>
<clipPath id="clip0_632_6160">
<rect width="58.94" height="58.94" fill="white" transform="translate(0.420898)"/>
</clipPath>
</defs>
</svg>
