<svg width="143" height="162" viewBox="0 0 143 162" fill="none" xmlns="http://www.w3.org/2000/svg">
<g clip-path="url(#clip0_1152_14067)">
<path d="M72.815 52.8022L52.325 0.742188L0.39502 27.9222L20.885 79.9722L72.815 52.8022Z" fill="#618BFF" stroke="black" stroke-miterlimit="10"/>
<path d="M20.8848 79.9708V134.331L72.8148 161.511L124.735 134.331V79.9708L72.8148 52.8008L20.8848 79.9708Z" fill="white" stroke="black" stroke-miterlimit="10"/>
<path d="M72.8148 107.151L20.8848 79.9708L72.8148 52.8008L124.735 79.9708L72.8148 107.151Z" fill="#618BFF" stroke="black" stroke-linejoin="round"/>
<path d="M104.295 114.3C106.327 114.3 107.975 111.439 107.975 107.91C107.975 104.38 106.327 101.52 104.295 101.52C102.262 101.52 100.615 104.38 100.615 107.91C100.615 111.439 102.262 114.3 104.295 114.3Z" fill="white"/>
<mask id="mask0_1152_14067" style="mask-type:luminance" maskUnits="userSpaceOnUse" x="100" y="101" width="8" height="14">
<path d="M104.295 114.3C106.327 114.3 107.975 111.439 107.975 107.91C107.975 104.38 106.327 101.52 104.295 101.52C102.262 101.52 100.615 104.38 100.615 107.91C100.615 111.439 102.262 114.3 104.295 114.3Z" fill="white"/>
</mask>
<g mask="url(#mask0_1152_14067)">
<path d="M106.345 110.181C107.598 110.181 108.615 109.164 108.615 107.911C108.615 106.657 107.598 105.641 106.345 105.641C105.091 105.641 104.075 106.657 104.075 107.911C104.075 109.164 105.091 110.181 106.345 110.181Z" fill="black" stroke="black" stroke-miterlimit="10"/>
</g>
<path d="M104.295 114.3C106.327 114.3 107.975 111.439 107.975 107.91C107.975 104.38 106.327 101.52 104.295 101.52C102.262 101.52 100.615 104.38 100.615 107.91C100.615 111.439 102.262 114.3 104.295 114.3Z" stroke="black" stroke-miterlimit="10"/>
<path d="M111.665 111.253C113.697 111.253 115.345 108.392 115.345 104.863C115.345 101.334 113.697 98.4727 111.665 98.4727C109.632 98.4727 107.985 101.334 107.985 104.863C107.985 108.392 109.632 111.253 111.665 111.253Z" fill="white"/>
<mask id="mask1_1152_14067" style="mask-type:luminance" maskUnits="userSpaceOnUse" x="107" y="98" width="9" height="14">
<path d="M111.665 111.253C113.697 111.253 115.345 108.392 115.345 104.863C115.345 101.334 113.697 98.4727 111.665 98.4727C109.632 98.4727 107.985 101.334 107.985 104.863C107.985 108.392 109.632 111.253 111.665 111.253Z" fill="white"/>
</mask>
<g mask="url(#mask1_1152_14067)">
<path d="M113.715 107.134C114.969 107.134 115.985 106.117 115.985 104.864C115.985 103.61 114.969 102.594 113.715 102.594C112.461 102.594 111.445 103.61 111.445 104.864C111.445 106.117 112.461 107.134 113.715 107.134Z" fill="black" stroke="black" stroke-miterlimit="10"/>
</g>
<path d="M111.665 111.253C113.697 111.253 115.345 108.392 115.345 104.863C115.345 101.334 113.697 98.4727 111.665 98.4727C109.632 98.4727 107.985 101.334 107.985 104.863C107.985 108.392 109.632 111.253 111.665 111.253Z" stroke="black" stroke-miterlimit="10"/>
<path d="M51.3151 116.012L42.4351 124.882" stroke="black" stroke-miterlimit="10"/>
<path d="M40.1849 132.043C42.8966 132.043 45.0949 129.844 45.0949 127.133C45.0949 124.421 42.8966 122.223 40.1849 122.223C37.4732 122.223 35.2749 124.421 35.2749 127.133C35.2749 129.844 37.4732 132.043 40.1849 132.043Z" fill="#66FF95" stroke="#231815" stroke-miterlimit="10"/>
<path d="M72.8149 52.8008V107.151" stroke="black" stroke-linejoin="round"/>
<path d="M79.9497 40.9497V31.0503" stroke="black"/>
<path d="M87 47.9497H96.8995" stroke="black"/>
<path d="M85 43L92 36" stroke="black"/>
</g>
<defs>
<clipPath id="clip0_1152_14067">
<rect width="143" height="162" fill="white"/>
</clipPath>
</defs>
</svg>
