<svg width="73" height="50" viewBox="0 0 73 50" fill="none" xmlns="http://www.w3.org/2000/svg">
<g style="mix-blend-mode:luminosity" opacity="0.3" clip-path="url(#clip0_639_7442)">
<path d="M71.4346 3.43259H48.7989C48.3501 1.48883 46.242 0 44.6975 0H28.7513C27.2067 0 24.6708 1.48883 24.1385 3.43259H1.5654C0.699214 3.43259 0 4.12531 0 4.98346V48.4491C0 49.3073 0.699214 50 1.5654 50H71.4346C72.3008 50 73 49.3073 73 48.4491V4.98346C73 4.12531 72.3008 3.43259 71.4346 3.43259Z" fill="#C6C6C6"/>
<path d="M36.5056 42.7824C45.1972 42.7824 52.2431 35.8019 52.2431 27.191C52.2431 18.5801 45.1972 11.5996 36.5056 11.5996C27.814 11.5996 20.7681 18.5801 20.7681 27.191C20.7681 35.8019 27.814 42.7824 36.5056 42.7824Z" fill="#F5F5F5"/>
<path d="M73 13.0586H0V15.1264H73V13.0586Z" fill="#F5F5F5"/>
<path d="M36.5053 44.5301C26.852 44.5301 18.9937 36.7448 18.9937 27.1811C18.9937 17.6174 26.852 9.83203 36.5053 9.83203C46.1586 9.83203 54.017 17.6174 54.017 27.1811C54.017 36.7448 46.1586 44.5301 36.5053 44.5301ZM36.5053 11.9102C27.9999 11.9102 21.0809 18.765 21.0809 27.1914C21.0809 35.6178 27.9999 42.4726 36.5053 42.4726C45.0107 42.4726 51.9298 35.6178 51.9298 27.1914C51.9298 18.765 45.0107 11.9102 36.5053 11.9102Z" fill="#C6C6C6"/>
<path d="M44.3742 34.9809C48.7187 30.6767 48.7187 23.6983 44.3742 19.3941C40.0297 15.09 32.9858 15.09 28.6413 19.3941C24.2968 23.6983 24.2968 30.6767 28.6413 34.9809C32.9858 39.285 40.0297 39.285 44.3742 34.9809Z" fill="#C6C6C6"/>
<path d="M36.5063 39.2515C29.7959 39.2515 24.3379 33.8441 24.3379 27.196C24.3379 20.548 29.7959 15.1406 36.5063 15.1406C43.2167 15.1406 48.6747 20.548 48.6747 27.196C48.6747 33.8441 43.2167 39.2515 36.5063 39.2515ZM36.5063 17.1981C30.9439 17.1981 26.4251 21.675 26.4251 27.1857C26.4251 32.6965 30.9439 37.1733 36.5063 37.1733C42.0687 37.1733 46.5875 32.6861 46.5875 27.1857C46.5875 21.6853 42.0687 17.1981 36.5063 17.1981Z" fill="#C6C6C6"/>
<path d="M42.8095 23.8131C42.726 23.658 42.5694 23.5546 42.392 23.5443C42.2146 23.5339 42.0476 23.6063 41.9328 23.7407C41.2649 24.5885 40.2526 25.0745 39.1673 25.0745C37.2366 25.0745 35.6608 23.5133 35.6608 21.6005C35.6608 21.342 35.6921 21.0836 35.7547 20.8147C35.7964 20.6493 35.7547 20.4632 35.619 20.3391C35.4938 20.2151 35.3164 20.153 35.1494 20.1944C31.7995 20.8354 29.3574 23.7511 29.3574 27.1423C29.3574 31.0401 32.5613 34.2142 36.4957 34.2142C40.43 34.2142 43.6339 31.0401 43.6339 27.1423C43.6339 25.9843 43.3417 24.8367 42.799 23.8234L42.8095 23.8131Z" fill="#F5F5F5"/>
<path d="M13.0035 22.9346H5.95918C4.93644 22.9346 4.10156 22.1075 4.10156 21.0943C4.10156 20.081 4.93644 19.2539 5.95918 19.2539H13.0035C14.0262 19.2539 14.8611 20.081 14.8611 21.0943C14.8611 22.1075 14.0262 22.9346 13.0035 22.9346Z" fill="#F5F5F5"/>
</g>
<defs>
<clipPath id="clip0_639_7442">
<rect width="73" height="50" fill="white"/>
</clipPath>
</defs>
</svg>
