<svg width="80" height="56" viewBox="0 0 80 56" fill="none" xmlns="http://www.w3.org/2000/svg">
<g filter="url(#filter0_d_686_4431)">
<rect x="10" y="10" width="60" height="36" rx="18" fill="white" shape-rendering="crispEdges"/>
<path d="M38.2031 21.3281V35.3594H36.7188V27.5781H33.8281V26.3594H36.7188V21.3281H38.2031ZM26.3594 31.4531C28.5 30.4297 30.0078 27.7812 30.0156 25.2656V23.9531H26.9219V22.7344H34.625V23.9531H31.5156V25.2656C31.5156 27.6328 33.0078 30.1875 35.1562 31.1406L34.2656 32.3281C32.6484 31.5469 31.4062 29.9141 30.7812 28.0078C30.1562 30.0391 28.8828 31.7812 27.2656 32.6094L26.3594 31.4531ZM45.2344 23.9062C45.2266 25.6875 46.4688 27.3125 48.5938 27.9844L47.8906 29.1406C46.2969 28.6328 45.1328 27.5781 44.5156 26.25C43.9062 27.7812 42.6797 28.9922 41 29.5781L40.2344 28.3906C42.4219 27.6719 43.7422 25.8672 43.75 23.9219V23.5312H40.6719V22.3281H48.25V23.5312H45.2344V23.9062ZM42.125 32.6719C42.125 31.0312 43.9141 30.0703 46.8281 30.0781C49.7109 30.0703 51.4688 31.0312 51.4688 32.6719C51.4688 34.3359 49.7109 35.3047 46.8281 35.2969C43.9141 35.3047 42.125 34.3359 42.125 32.6719ZM43.6094 32.6719C43.6016 33.6094 44.8047 34.1328 46.8281 34.125C48.8359 34.1328 50.0234 33.6094 50.0156 32.6719C50.0234 31.7578 48.8359 31.2422 46.8281 31.25C44.8047 31.2422 43.6016 31.7578 43.6094 32.6719ZM49.8594 29.7344V21.3281H51.3438V24.7969H53.375V26.0156H51.3438V29.7344H49.8594Z" fill="black"/>
</g>
<defs>
<filter id="filter0_d_686_4431" x="0" y="0" width="80" height="56" filterUnits="userSpaceOnUse" color-interpolation-filters="sRGB">
<feFlood flood-opacity="0" result="BackgroundImageFix"/>
<feColorMatrix in="SourceAlpha" type="matrix" values="0 0 0 0 0 0 0 0 0 0 0 0 0 0 0 0 0 0 127 0" result="hardAlpha"/>
<feOffset/>
<feGaussianBlur stdDeviation="5"/>
<feComposite in2="hardAlpha" operator="out"/>
<feColorMatrix type="matrix" values="0 0 0 0 0 0 0 0 0 0 0 0 0 0 0 0 0 0 0.15 0"/>
<feBlend mode="normal" in2="BackgroundImageFix" result="effect1_dropShadow_686_4431"/>
<feBlend mode="normal" in="SourceGraphic" in2="effect1_dropShadow_686_4431" result="shape"/>
</filter>
</defs>
</svg>
