<svg width="24" height="32" viewBox="0 0 24 32" fill="none" xmlns="http://www.w3.org/2000/svg">
<g clip-path="url(#clip0_1152_14576)">
<path d="M23.5 11.7161V11.7163C23.5 13.4575 22.7917 15.5702 21.6778 17.7982C20.5695 20.0148 19.0865 22.2936 17.5951 24.3525C16.1049 26.4098 14.6136 28.2377 13.4944 29.5518C12.9349 30.2086 12.469 30.7364 12.1434 31.0995C12.0947 31.1538 12.0491 31.2045 12.0068 31.2513C11.9623 31.2002 11.9141 31.1447 11.8624 31.085C11.5364 30.7085 11.0701 30.1624 10.5104 29.4852C9.39041 28.1303 7.8982 26.2533 6.40706 24.1628C4.91466 22.0705 3.43041 19.7741 2.32125 17.5794C1.20475 15.3703 0.5 13.3246 0.5 11.7163C0.5 5.53217 5.63905 0.5 12 0.5C18.3636 0.5 23.5025 5.53223 23.5 11.7161Z" fill="#F7476C" stroke="white"/>
<path d="M11.9697 16.0547C14.1789 16.0547 15.9697 14.2638 15.9697 12.0547C15.9697 9.84555 14.1789 8.05469 11.9697 8.05469C9.76059 8.05469 7.96973 9.84555 7.96973 12.0547C7.96973 14.2638 9.76059 16.0547 11.9697 16.0547Z" fill="white"/>
</g>
<defs>
<clipPath id="clip0_1152_14576">
<rect width="24" height="32" fill="white"/>
</clipPath>
</defs>
</svg>
