<svg width="41" height="54" viewBox="0 0 41 54" fill="none" xmlns="http://www.w3.org/2000/svg">
<g clip-path="url(#clip0_1152_14579)">
<path d="M39.9697 19.7708V19.7712C39.9697 22.6757 38.8012 26.2163 36.9481 29.969C35.106 33.6993 32.6394 37.5373 30.1564 41.008C27.6759 44.4754 25.1931 47.5567 23.3295 49.7721C22.3981 50.8793 21.6225 51.7688 21.0805 52.3807C21.0473 52.4183 21.0149 52.4548 20.9834 52.4902C20.9469 52.4477 20.9092 52.4037 20.8703 52.3582C20.3278 51.7238 19.5514 50.8032 18.6194 49.6615C16.7543 47.377 14.2697 44.2126 11.7872 40.6887C9.30228 37.1613 6.83332 33.2932 4.98945 29.5993C3.13136 25.8768 1.96973 22.4502 1.96973 19.7712C1.96973 9.41375 10.4682 1 20.9697 1C31.4758 1 39.9738 9.41388 39.9697 19.7708Z" fill="#F7476C" stroke="white" stroke-width="2"/>
<g clip-path="url(#clip1_1152_14579)">
<path d="M29.9697 24.8984V27.8984L11.9697 27.8809V24.8984C13.458 24.8984 13.458 23.8984 14.9699 23.8984C16.4818 23.8984 16.4578 24.8984 17.9697 24.8984C19.4816 24.8984 19.4578 23.8984 20.9697 23.8984C22.4816 23.8984 22.4574 24.8984 23.9697 24.8984C25.482 24.8984 25.4577 23.8984 26.9696 23.8984C28.4815 23.8984 28.4574 24.8984 29.9697 24.8984Z" fill="white"/>
<path d="M22.8231 17.8984H29.9697C29.9697 17.8984 29.9697 18.6186 29.9697 19.5068V21.8984C28.4574 21.8984 28.4816 20.8984 26.9697 20.8984C25.4578 20.8984 25.4577 21.8984 23.9699 21.8984C22.482 21.8984 22.4576 20.8984 20.9697 20.8984C19.4819 20.8984 19.4578 21.8984 17.9696 21.8984C16.4813 21.8984 16.4577 20.8984 14.9699 20.8984C13.482 20.8984 13.458 21.8984 11.9697 21.8984V18.8984L11.9698 17.8984H22.8231Z" fill="white"/>
<path d="M22.6708 10.6622C23.6028 11.6487 23.6028 13.204 22.6708 14.1905C21.7284 15.1344 20.2119 15.1344 19.2688 14.1905C18.3368 13.204 18.3368 11.6487 19.2688 10.6622L20.9698 8.89844L22.6708 10.6622Z" fill="white"/>
</g>
</g>
<defs>
<clipPath id="clip0_1152_14579">
<rect width="40" height="54" fill="white" transform="translate(0.969727)"/>
</clipPath>
<clipPath id="clip1_1152_14579">
<rect width="18" height="20" fill="white" transform="translate(11.9697 8.89844)"/>
</clipPath>
</defs>
</svg>
