<svg width="41" height="40" viewBox="0 0 41 40" fill="none" xmlns="http://www.w3.org/2000/svg">
<path d="M26.8628 23.8145C28.2396 22.3558 29.092 20.4077 29.092 18.2566C29.092 13.7512 25.3923 10.0952 20.8217 10.0952C16.251 10.0952 12.542 13.7512 12.542 18.2566C12.542 20.4077 13.3943 22.3558 14.7711 23.8145L14.9116 23.9622C14.9491 23.9991 14.9866 24.036 15.024 24.073L20.8123 29.7786L26.6006 24.073C26.6006 24.073 26.6755 23.9991 26.713 23.9622L26.8535 23.8237L26.8628 23.8145Z" fill="white" stroke="#767676" stroke-width="1.3" stroke-linecap="round" stroke-linejoin="round"/>
<path d="M20.822 21.1463C22.5704 21.1463 23.9878 19.7492 23.9878 18.0258C23.9878 16.3024 22.5704 14.9053 20.822 14.9053C19.0736 14.9053 17.6562 16.3024 17.6562 18.0258C17.6562 19.7492 19.0736 21.1463 20.822 21.1463Z" fill="white" stroke="#767676" stroke-width="1.3" stroke-linecap="round" stroke-linejoin="round"/>
</svg>
