<svg width="41" height="40" viewBox="0 0 41 40" fill="none" xmlns="http://www.w3.org/2000/svg">
<path d="M26.8628 23.815C28.2396 22.3562 29.092 20.4082 29.092 18.2571C29.092 13.7517 25.3923 10.0957 20.8217 10.0957C16.251 10.0957 12.542 13.7517 12.542 18.2571C12.542 20.4082 13.3943 22.3562 14.7711 23.815L14.9116 23.9627C14.9491 23.9996 14.9866 24.0365 15.024 24.0735L20.8123 29.779L26.6006 24.0735C26.6006 24.0735 26.6755 23.9996 26.713 23.9627L26.8535 23.8242L26.8628 23.815Z" fill="white" stroke="#767676" stroke-width="1.3" stroke-linecap="round" stroke-linejoin="round"/>
<path d="M20.8215 21.1473C22.5699 21.1473 23.9873 19.7502 23.9873 18.0268C23.9873 16.3034 22.5699 14.9062 20.8215 14.9062C19.0731 14.9062 17.6558 16.3034 17.6558 18.0268C17.6558 19.7502 19.0731 21.1473 20.8215 21.1473Z" fill="white" stroke="#767676" stroke-width="1.3" stroke-linecap="round" stroke-linejoin="round"/>
</svg>
