<svg width="21" height="22" viewBox="0 0 21 22" fill="none" xmlns="http://www.w3.org/2000/svg">
<g clip-path="url(#clip0_974_30543)">
<path d="M14.8574 5.39187C12.3026 5.39187 10.2371 3.29048 10.2371 0.691406C10.2371 3.29048 8.17149 5.39187 5.6167 5.39187C8.17149 5.39187 10.2371 7.49325 10.2371 10.0923C10.2371 7.49325 12.3026 5.39187 14.8574 5.39187Z" fill="white" stroke="#FF4170" stroke-width="1.3" stroke-linecap="round" stroke-linejoin="round"/>
<path d="M16.0717 21.3092C18.4183 21.3092 20.3206 19.3739 20.3206 16.9866C20.3206 14.5993 18.4183 12.6641 16.0717 12.6641C13.7251 12.6641 11.8228 14.5993 11.8228 16.9866C11.8228 19.3739 13.7251 21.3092 16.0717 21.3092Z" fill="white" stroke="#FF4170" stroke-width="1.3" stroke-linecap="round" stroke-linejoin="round"/>
<path d="M7.97168 20.7098L7.97168 13.2812H0.669696L0.669696 20.7098H7.97168Z" fill="white" stroke="#FF4170" stroke-width="1.3" stroke-linecap="round" stroke-linejoin="round"/>
</g>
<defs>
<clipPath id="clip0_974_30543">
<rect width="21" height="22" fill="white"/>
</clipPath>
</defs>
</svg>
