<svg width="23" height="24" viewBox="0 0 23 24" fill="none" xmlns="http://www.w3.org/2000/svg">
<g clip-path="url(#clip0_974_30458)">
<path d="M15.8579 6.39187C13.3031 6.39187 11.2376 4.29048 11.2376 1.69141C11.2376 4.29048 9.17198 6.39187 6.61719 6.39187C9.17198 6.39187 11.2376 8.49325 11.2376 11.0923C11.2376 8.49325 13.3031 6.39187 15.8579 6.39187Z" fill="white" stroke="#F7476C" stroke-width="2" stroke-linecap="round" stroke-linejoin="round"/>
<path d="M17.0712 22.3087C19.4178 22.3087 21.3201 20.3735 21.3201 17.9862C21.3201 15.5989 19.4178 13.6636 17.0712 13.6636C14.7246 13.6636 12.8223 15.5989 12.8223 17.9862C12.8223 20.3735 14.7246 22.3087 17.0712 22.3087Z" fill="white" stroke="#F7476C" stroke-width="2" stroke-linecap="round" stroke-linejoin="round"/>
<path d="M8.97168 21.7098V14.2812H1.6697L1.6697 21.7098H8.97168Z" fill="white" stroke="#F7476C" stroke-width="2" stroke-linecap="round" stroke-linejoin="round"/>
</g>
<defs>
<clipPath id="clip0_974_30458">
<rect width="23" height="24" fill="white"/>
</clipPath>
</defs>
</svg>
