<svg width="343" height="55" viewBox="0 0 343 55" fill="none" xmlns="http://www.w3.org/2000/svg">
<path d="M10.7871 0.816406V13.2852H9.02344V0.816406H10.7871ZM0.984375 10.373V1.80078H2.73438V4.83594H5.41406V1.80078H7.13672V10.373H0.984375ZM2.73438 8.96484H5.41406V6.18945H2.73438V8.96484ZM19.1816 1.43164V6.68164H13.0977V1.43164H19.1816ZM14.5469 13.1758V9.75781H21.1641V8.99219H14.5469V7.63867H22.873V10.9883H16.2832V11.7949H23.2012V13.1758H14.5469ZM14.8203 5.3418H17.4453V2.82617H14.8203V5.3418ZM21.1367 7.10547V0.816406H22.873V7.10547H21.1367ZM35.0547 0.830078V10.0039H33.3184V5.51953H31.0215V8.03516H25.1016V1.63672H26.8516V3.55078H29.2988V1.63672H31.0215V4.125H33.3184V0.830078H35.0547ZM26.7695 13.0391V9.08789H28.5332V11.6445H35.3145V13.0391H26.7695ZM26.8516 6.66797H29.2988V4.87695H26.8516V6.66797ZM47.5098 2.38867V3.7832H37.1602V2.38867H41.4668V0.939453H43.1895V2.38867H47.5098ZM36.668 11.9863V10.5918H41.4668V9.16309C39.3477 8.97168 38.0625 8.10352 38.0762 6.73633C38.0625 5.22559 39.6963 4.32324 42.3281 4.33008C44.9121 4.32324 46.5732 5.22559 46.5664 6.73633C46.5732 8.10352 45.2744 8.97168 43.1895 9.15625V10.5918H48.0566V11.9863H36.668ZM39.8672 6.73633C39.8604 7.47461 40.7148 7.80957 42.3281 7.80273C43.9072 7.80957 44.7754 7.47461 44.7754 6.73633C44.7754 6.02539 43.9072 5.69043 42.3281 5.68359C40.7148 5.69043 39.8604 6.02539 39.8672 6.73633Z" fill="#8B8B8B"/>
<circle cx="36.9165" cy="36" r="6" fill="black"/>
<path d="M20 54H53.8333" stroke="#E8E8E8"/>
<circle cx="90.75" cy="36" r="6" fill="black"/>
<path d="M73.8333 54H107.667" stroke="#E8E8E8"/>
<circle cx="144.583" cy="36" r="6" fill="black"/>
<path d="M127.667 54H161.5" stroke="#E8E8E8"/>
<circle cx="198.417" cy="36" r="6" fill="black"/>
<path d="M181.5 54H215.333" stroke="#E8E8E8"/>
<circle cx="252.25" cy="36" r="6" fill="black"/>
<path d="M235.333 54H269.167" stroke="#E8E8E8"/>
<circle cx="306.083" cy="36" r="6" fill="black"/>
<path d="M289.167 54H323" stroke="#E8E8E8"/>
</svg>
