<svg width="24" height="25" viewBox="0 0 24 25" fill="none" xmlns="http://www.w3.org/2000/svg">
<path d="M16.5 3.10742C14.76 3.10742 13.09 3.91742 12 5.19742C10.91 3.91742 9.24 3.10742 7.5 3.10742C4.42 3.10742 2 5.52742 2 8.60742C2 12.3874 5.4 15.4674 10.55 20.1474L12 21.4574L13.45 20.1374C18.6 15.4674 22 12.3874 22 8.60742C22 5.52742 19.58 3.10742 16.5 3.10742ZM12.1 18.6574L12 18.7574L11.9 18.6574C7.14 14.3474 4 11.4974 4 8.60742C4 6.60742 5.5 5.10742 7.5 5.10742C9.04 5.10742 10.54 6.09742 11.07 7.46742H12.94C13.46 6.09742 14.96 5.10742 16.5 5.10742C18.5 5.10742 20 6.60742 20 8.60742C20 11.4974 16.86 14.3474 12.1 18.6574Z" fill="black"/>
</svg>
