<svg width="24" height="25" viewBox="0 0 24 25" fill="none" xmlns="http://www.w3.org/2000/svg">
<path d="M19.4318 13.2622C19.4718 12.9422 19.5018 12.6222 19.5018 12.2822C19.5018 11.9422 19.4718 11.6222 19.4318 11.3022L21.5418 9.65223C21.7318 9.50223 21.7818 9.23223 21.6618 9.01223L19.6618 5.55223C19.5718 5.39223 19.4018 5.30223 19.2218 5.30223C19.1618 5.30223 19.1018 5.31223 19.0518 5.33223L16.5618 6.33223C16.0418 5.93223 15.4818 5.60223 14.8718 5.35223L14.4918 2.70223C14.4618 2.46223 14.2518 2.28223 14.0018 2.28223H10.0018C9.75179 2.28223 9.54179 2.46223 9.51179 2.70223L9.13179 5.35223C8.52179 5.60223 7.96179 5.94223 7.44179 6.33223L4.95179 5.33223C4.89179 5.31223 4.83179 5.30223 4.77179 5.30223C4.60179 5.30223 4.43179 5.39223 4.34179 5.55223L2.34179 9.01223C2.21179 9.23223 2.27179 9.50223 2.46179 9.65223L4.57179 11.3022C4.53179 11.6222 4.50179 11.9522 4.50179 12.2822C4.50179 12.6122 4.53179 12.9422 4.57179 13.2622L2.46179 14.9122C2.27179 15.0622 2.22179 15.3322 2.34179 15.5522L4.34179 19.0122C4.43179 19.1722 4.60179 19.2622 4.78179 19.2622C4.84179 19.2622 4.90179 19.2522 4.95179 19.2322L7.44179 18.2322C7.96179 18.6322 8.52179 18.9622 9.13179 19.2122L9.51179 21.8622C9.54179 22.1022 9.75179 22.2822 10.0018 22.2822H14.0018C14.2518 22.2822 14.4618 22.1022 14.4918 21.8622L14.8718 19.2122C15.4818 18.9622 16.0418 18.6222 16.5618 18.2322L19.0518 19.2322C19.1118 19.2522 19.1718 19.2622 19.2318 19.2622C19.4018 19.2622 19.5718 19.1722 19.6618 19.0122L21.6618 15.5522C21.7818 15.3322 21.7318 15.0622 21.5418 14.9122L19.4318 13.2622ZM17.4518 11.5522C17.4918 11.8622 17.5018 12.0722 17.5018 12.2822C17.5018 12.4922 17.4818 12.7122 17.4518 13.0122L17.3118 14.1422L18.2018 14.8422L19.2818 15.6822L18.5818 16.8922L17.3118 16.3822L16.2718 15.9622L15.3718 16.6422C14.9418 16.9622 14.5318 17.2022 14.1218 17.3722L13.0618 17.8022L12.9018 18.9322L12.7018 20.2822H11.3018L10.9518 17.8022L9.89179 17.3722C9.46179 17.1922 9.06179 16.9622 8.66179 16.6622L7.75179 15.9622L6.69179 16.3922L5.42179 16.9022L4.72179 15.6922L5.80179 14.8522L6.69179 14.1522L6.55179 13.0222C6.52179 12.7122 6.50179 12.4822 6.50179 12.2822C6.50179 12.0822 6.52179 11.8522 6.55179 11.5522L6.69179 10.4222L5.80179 9.72223L4.72179 8.88223L5.42179 7.67223L6.69179 8.18223L7.73179 8.60223L8.63179 7.92223C9.06179 7.60223 9.47179 7.36223 9.88179 7.19223L10.9418 6.76223L11.1018 5.63223L11.3018 4.28223H12.6918L13.0418 6.76223L14.1018 7.19223C14.5318 7.37223 14.9318 7.60223 15.3318 7.90223L16.2418 8.60223L17.3018 8.17223L18.5718 7.66223L19.2718 8.87223L18.2018 9.72223L17.3118 10.4222L17.4518 11.5522ZM12.0018 8.28223C9.79179 8.28223 8.00179 10.0722 8.00179 12.2822C8.00179 14.4922 9.79179 16.2822 12.0018 16.2822C14.2118 16.2822 16.0018 14.4922 16.0018 12.2822C16.0018 10.0722 14.2118 8.28223 12.0018 8.28223ZM12.0018 14.2822C10.9018 14.2822 10.0018 13.3822 10.0018 12.2822C10.0018 11.1822 10.9018 10.2822 12.0018 10.2822C13.1018 10.2822 14.0018 11.1822 14.0018 12.2822C14.0018 13.3822 13.1018 14.2822 12.0018 14.2822Z" fill="black"/>
</svg>
