<svg width="24" height="25" viewBox="0 0 24 25" fill="none" xmlns="http://www.w3.org/2000/svg">
<path d="M17 1.29223L7 1.28223C5.9 1.28223 5 2.18223 5 3.28223V21.2822C5 22.3822 5.9 23.2822 7 23.2822H17C18.1 23.2822 19 22.3822 19 21.2822V3.28223C19 2.18223 18.1 1.29223 17 1.29223ZM17 21.2822H7V20.2822H17V21.2822ZM17 18.2822H7V6.28223H17V18.2822ZM7 4.28223V3.28223H17V4.28223H7ZM16 12.2822L12 16.2822L8 12.2822L9.41 10.8722L11 12.4522V8.28223H13V12.4522L14.59 10.8622L16 12.2822Z" fill="black"/>
</svg>
